# xmcd
#
# Track frame offsets:
#	150
#	19030
#	36195
#	55297
#	78057
#	93337
#	112655
#	132377
#	147050
#	160660
#	175850
#	195667
#	210982
#	225184
#	240852
#	260145
#	280255
#	305897
#
# Disc length: 4398 seconds
#
# Revision: 1
# Processed by: cddbd v1.5.2PL0 Copyright (c) Steve Scherf et al.
# Submitted via: EasyCDDAExtractor 11.0.2.1
#
DISCID=e1112c12
DTITLE=Various Artist - YU Balade 8
DYEAR=1900
DGENRE=balade
TTITLE0=ALISA - Sanja
TTITLE1=KERBER - Seobe
TTITLE2=RIBLJA ČORBA - Ostalo Je Ćutanje
TTITLE3=PRLJAVO KAZALIŠTE - Zbogom Dame, Zbogom Prijatelji
TTITLE4=RIBLJA ČORBA - Tamna Je Noć
TTITLE5=KERBER - Kad Ljubav Izda
TTITLE6=PARNI VALJAK - Staška
TTITLE7=ALISA - Skidam Košulju Da Legnem
TTITLE8=MAGAZIN - Besane Noći
TTITLE9=HARI MATA HARI - Reci Srećo
TTITLE10=DORIS DRAGOVIĆ - Ja Noćas Umirem
TTITLE11=SREBRNA KRILA - Prva Noć Sa Njom
TTITLE12=MAGAZIN - Boli Me
TTITLE13=DORIS DRAGOVIĆ - Opilo Me Vino
TTITLE14=HARI MATA HARI - Ruža Bez Trna
TTITLE15=ZDRAVKO ČOLIĆ - Ti Si Bila
TTITLE16=YU GRUPA - More
TTITLE17=FILM - Dom
EXTD=
EXTT0=
EXTT1=
EXTT2=
EXTT3=
EXTT4=
EXTT5=
EXTT6=
EXTT7=
EXTT8=
EXTT9=
EXTT10=
EXTT11=
EXTT12=
EXTT13=
EXTT14=
EXTT15=
EXTT16=
EXTT17=
PLAYORDER=
